<svg width="32" height="32" viewBox="0 0 32 32" fill="none" xmlns="http://www.w3.org/2000/svg">
<g id="Group">
<path id="Vector" d="M16 1C7.7155 1 1 7.7155 1 16C1 24.2845 7.7155 31 16 31C24.2845 31 31 24.2845 31 16C31 7.7155 24.2845 1 16 1Z" stroke="#0F0F0F" stroke-width="1.5" stroke-linecap="round" stroke-linejoin="round"/>
<path id="Vector_2" d="M4.40625 25.519C4.40625 25.519 7.74975 21.25 15.9998 21.25C24.2498 21.25 27.5947 25.519 27.5947 25.519M15.9998 16C17.1932 16 18.3378 15.5259 19.1817 14.682C20.0256 13.8381 20.4998 12.6935 20.4998 11.5C20.4998 10.3065 20.0256 9.16193 19.1817 8.31802C18.3378 7.47411 17.1932 7 15.9998 7C14.8063 7 13.6617 7.47411 12.8178 8.31802C11.9739 9.16193 11.4998 10.3065 11.4998 11.5C11.4998 12.6935 11.9739 13.8381 12.8178 14.682C13.6617 15.5259 14.8063 16 15.9998 16Z" stroke="#0F0F0F" stroke-width="1.5" stroke-linecap="round" stroke-linejoin="round"/>
</g>
</svg>
