<svg xmlns="http://www.w3.org/2000/svg" width="149" height="51" fill="none"><mask id="a" width="149" height="51" x="0" y="0" maskUnits="userSpaceOnUse" style="mask-type:luminance"><path fill="#fff" d="M149 0H0v51h149V0Z"/></mask><g mask="url(#a)"><path stroke="#ECACB3" stroke-linejoin="round" stroke-miterlimit="10" stroke-width="2.5" d="M33.419 32.117c1.85-2.643 2.939-7.652 1.415-17.008M17.463 26.007s6.127-.841 8.648 5.042c0 0 1.092 3.614 3.873 3.614 0 0 1.24.238 1.276 1.779 0 0 .84 6.442-3.992 7.633 0 0-7.704-.14-7.704 6.232M17.043 28.247v-7.983S2.883 26.147 2.335 37.212L2 44.286"/><path stroke="#ECACB3" stroke-linejoin="round" stroke-miterlimit="10" stroke-width="2.5" d="M43.84 45.839c-2.133-5.69-3.092-11.615-.1-18.977h10.796s6.222-.693 6.568-11.753l-11.062-4.84s-.346-5.877-6.912-7.259c0 0-15.21-5.876-20.394 10.715 0 0-1.094 3.332-1.709 7.345"/><path fill="#9384B7" d="M79.26 11c.707 0 1.36.193 1.96.58.6.373 1.08.887 1.44 1.54.36.653.54 1.387.54 2.2 0 .813-.18 1.553-.54 2.22-.36.653-.84 1.18-1.44 1.58-.6.387-1.253.58-1.96.58H75.4l.16-.32v4.6c0 .293-.093.54-.28.74-.173.187-.406.28-.7.28a.95.95 0 0 1-.7-.28 1.09 1.09 0 0 1-.26-.74V12.02c0-.293.1-.533.3-.72.2-.2.44-.3.72-.3h4.62Zm0 6.78c.347 0 .66-.113.94-.34.294-.227.527-.527.7-.9.187-.373.28-.78.28-1.22 0-.44-.093-.84-.28-1.2a2.241 2.241 0 0 0-.7-.86 1.456 1.456 0 0 0-.94-.34h-3.9l.2-.3v5.42l-.18-.26h3.88Zm13.894-3.3c.28 0 .514.1.7.3.2.187.3.427.3.72v5.26c0 1.387-.386 2.473-1.16 3.26-.773.773-1.866 1.16-3.28 1.16-1.4 0-2.486-.387-3.26-1.16-.76-.787-1.14-1.873-1.14-3.26V15.5c0-.293.094-.533.28-.72a.94.94 0 0 1 .72-.3c.28 0 .514.1.7.3.2.187.3.427.3.72v5.26c0 .867.2 1.513.6 1.94.414.427 1.014.64 1.8.64.8 0 1.407-.213 1.82-.64.414-.427.62-1.073.62-1.94V15.5c0-.293.094-.533.28-.72a.94.94 0 0 1 .72-.3ZM97.936 25a.972.972 0 0 1-.72-.28c-.187-.2-.28-.447-.28-.74V15.5c0-.293.093-.533.28-.72.186-.2.426-.3.72-.3.28 0 .513.1.7.3.2.187.3.427.3.72v2.24l-.2-.86c.106-.373.266-.72.48-1.04.226-.32.493-.6.799-.84.307-.24.647-.427 1.02-.56a3.66 3.66 0 0 1 1.2-.2c.347 0 .647.093.9.28.253.187.38.42.38.7 0 .36-.093.627-.28.8a.93.93 0 0 1-.62.24c-.2 0-.393-.04-.58-.12a1.462 1.462 0 0 0-.66-.14c-.28 0-.567.073-.86.22a2.463 2.463 0 0 0-.799.66c-.24.28-.434.613-.58 1-.134.387-.2.82-.2 1.3v4.8c0 .293-.1.54-.3.74a.95.95 0 0 1-.7.28Zm8.359 0a.972.972 0 0 1-.72-.28c-.187-.2-.28-.447-.28-.74V15.5c0-.293.093-.533.28-.72.186-.2.426-.3.72-.3.28 0 .513.1.7.3.2.187.3.427.3.72v2.24l-.2-.86c.106-.373.266-.72.48-1.04.226-.32.493-.6.8-.84.306-.24.646-.427 1.02-.56a3.65 3.65 0 0 1 1.2-.2c.346 0 .646.093.9.28.253.187.38.42.38.7 0 .36-.094.627-.28.8a.932.932 0 0 1-.62.24c-.2 0-.394-.04-.58-.12a1.462 1.462 0 0 0-.66-.14c-.28 0-.567.073-.86.22-.294.147-.56.367-.8.66-.24.28-.434.613-.58 1-.134.387-.2.82-.2 1.3v4.8c0 .293-.1.54-.3.74a.95.95 0 0 1-.7.28Zm12.259-14.78c.253 0 .513.033.78.1s.487.18.66.34c.187.147.28.353.28.62s-.08.487-.24.66a.768.768 0 0 1-.56.24c-.133 0-.313-.027-.54-.08a2.398 2.398 0 0 0-.68-.1c-.307 0-.553.073-.74.22-.187.133-.32.307-.4.52-.08.2-.12.4-.12.6v10.64c0 .293-.1.54-.3.74a.95.95 0 0 1-.7.28.976.976 0 0 1-.72-.28c-.187-.2-.28-.447-.28-.74V13.36c0-.92.3-1.673.9-2.26.613-.587 1.5-.88 2.66-.88Zm.4 4.44c.267 0 .487.087.66.26.173.173.26.393.26.66a.895.895 0 0 1-.26.66.893.893 0 0 1-.66.26h-5.18a.94.94 0 0 1-.66-.26.895.895 0 0 1-.26-.66c0-.267.087-.487.26-.66a.94.94 0 0 1 .66-.26h5.18Zm7.178 10.54c-1.107 0-2.067-.227-2.88-.68a5.001 5.001 0 0 1-1.9-1.9c-.44-.813-.66-1.74-.66-2.78 0-1.173.233-2.173.7-3 .48-.84 1.1-1.48 1.86-1.92a4.65 4.65 0 0 1 2.42-.68c.653 0 1.273.133 1.86.4a4.814 4.814 0 0 1 1.56 1.08 4.91 4.91 0 0 1 1.1 1.62c.267.613.407 1.287.42 2.02a.897.897 0 0 1-.32.66c-.2.173-.433.26-.7.26h-7.78l-.48-1.7h7.52l-.38.36v-.5a2.083 2.083 0 0 0-.46-1.22 2.718 2.718 0 0 0-1.04-.82c-.413-.2-.847-.3-1.3-.3-.4 0-.787.067-1.16.2-.36.12-.687.32-.98.6-.28.28-.507.653-.68 1.12-.16.453-.24 1.02-.24 1.7 0 .733.153 1.373.46 1.92.307.547.72.973 1.24 1.28a3.44 3.44 0 0 0 1.72.44c.493 0 .9-.047 1.22-.14.32-.107.587-.233.8-.38.213-.147.4-.287.56-.42.2-.12.4-.18.6-.18.24 0 .44.087.6.26.16.16.24.353.24.58 0 .293-.147.56-.44.8-.36.347-.86.653-1.5.92-.627.267-1.287.4-1.98.4Zm11.401-10.96c.72 0 1.36.08 1.92.24.56.147.993.36 1.3.64.32.267.48.58.48.94 0 .227-.067.44-.2.64-.134.187-.334.28-.6.28a1.06 1.06 0 0 1-.48-.1 1.943 1.943 0 0 1-.34-.24 2.609 2.609 0 0 0-.4-.28c-.147-.08-.367-.147-.66-.2a4.106 4.106 0 0 0-.76-.08c-.707 0-1.32.16-1.84.48-.507.32-.907.753-1.2 1.3-.28.547-.42 1.167-.42 1.86 0 .693.14 1.313.42 1.86.293.547.686.98 1.18 1.3.506.32 1.093.48 1.76.48.4 0 .726-.027.98-.08.253-.067.473-.147.66-.24.2-.12.366-.24.5-.36.146-.133.346-.2.6-.2.293 0 .513.093.66.28.16.173.24.393.24.66 0 .293-.18.58-.54.86-.347.267-.814.487-1.4.66a6.835 6.835 0 0 1-1.94.26c-1.04 0-1.947-.24-2.72-.72a4.954 4.954 0 0 1-1.78-1.96c-.414-.827-.62-1.76-.62-2.8 0-1.053.22-1.987.66-2.8a5.005 5.005 0 0 1 1.84-1.96c.786-.48 1.686-.72 2.7-.72Zm5.571.36h4.7c.266 0 .486.093.66.28.186.173.28.393.28.66a.841.841 0 0 1-.28.64.896.896 0 0 1-.66.26h-4.7a.962.962 0 0 1-.68-.26.935.935 0 0 1-.26-.66c0-.267.086-.487.26-.66a.962.962 0 0 1 .68-.26Zm2.1-2.6c.293 0 .533.1.72.3.186.187.28.427.28.72v9.28c0 .24.04.433.12.58a.63.63 0 0 0 .32.3c.146.053.293.08.44.08a.844.844 0 0 0 .38-.08c.12-.053.26-.08.42-.08.16 0 .306.073.44.22.133.147.2.347.2.6 0 .32-.174.58-.52.78-.347.2-.72.3-1.12.3-.227 0-.494-.02-.8-.06a2.558 2.558 0 0 1-.9-.3c-.28-.16-.514-.413-.7-.76-.187-.36-.28-.86-.28-1.5v-9.36c0-.293.093-.533.28-.72.2-.2.44-.3.72-.3ZM78.06 34.24c.72 0 1.36.08 1.92.24.56.147.994.36 1.3.64.32.267.48.58.48.94 0 .227-.066.44-.2.64-.133.187-.333.28-.6.28-.186 0-.346-.033-.48-.1a1.969 1.969 0 0 1-.34-.24 2.595 2.595 0 0 0-.4-.28c-.146-.08-.366-.147-.66-.2a4.1 4.1 0 0 0-.76-.08c-.706 0-1.32.16-1.84.48-.506.32-.906.753-1.2 1.3-.28.547-.42 1.167-.42 1.86 0 .693.14 1.313.42 1.86.294.547.687.98 1.18 1.3.507.32 1.094.48 1.76.48.4 0 .727-.027.98-.08.254-.067.474-.147.66-.24.2-.12.367-.24.5-.36.147-.133.347-.2.6-.2.294 0 .514.093.66.28.16.173.24.393.24.66 0 .293-.18.58-.54.86-.346.267-.813.487-1.4.66a6.829 6.829 0 0 1-1.94.26c-1.04 0-1.946-.24-2.72-.72a4.96 4.96 0 0 1-1.78-1.96c-.413-.827-.62-1.76-.62-2.8 0-1.053.22-1.987.66-2.8a5.008 5.008 0 0 1 1.84-1.96c.787-.48 1.687-.72 2.7-.72Zm14.331.08c.294 0 .534.1.72.3.187.187.28.427.28.72v8.64c0 .293-.093.54-.28.74a.975.975 0 0 1-.72.28c-.28 0-.52-.093-.72-.28-.186-.2-.28-.447-.28-.74v-1.44l.42.06c0 .24-.1.507-.3.8-.186.293-.446.58-.78.86a4.803 4.803 0 0 1-1.18.68c-.453.173-.94.26-1.46.26-.92 0-1.746-.233-2.48-.7-.733-.48-1.313-1.133-1.74-1.96-.426-.827-.64-1.767-.64-2.82 0-1.08.214-2.027.64-2.84.427-.827 1-1.473 1.72-1.94a4.451 4.451 0 0 1 2.44-.7c.574 0 1.1.093 1.58.28.494.187.92.427 1.28.72s.634.607.82.94c.2.32.3.627.3.92l-.62.06v-1.82c0-.28.094-.52.28-.72.2-.2.44-.3.72-.3Zm-4.08 9.04c.627 0 1.18-.16 1.66-.48.48-.32.854-.753 1.12-1.3.267-.56.4-1.18.4-1.86 0-.693-.133-1.313-.4-1.86a3.228 3.228 0 0 0-1.12-1.3c-.48-.32-1.033-.48-1.66-.48-.613 0-1.16.16-1.64.48-.466.32-.84.753-1.12 1.3-.266.547-.4 1.167-.4 1.86 0 .68.134 1.3.4 1.86.28.547.654.98 1.12 1.3.48.32 1.027.48 1.64.48ZM97.193 45a.976.976 0 0 1-.72-.28c-.186-.2-.28-.447-.28-.74V35.5c0-.293.094-.533.28-.72.187-.2.427-.3.72-.3.28 0 .514.1.7.3.2.187.3.427.3.72v2.24l-.2-.86a3.71 3.71 0 0 1 .48-1.04c.227-.32.494-.6.8-.84.307-.24.647-.427 1.02-.56a3.66 3.66 0 0 1 1.2-.2c.347 0 .647.093.9.28.253.187.38.42.38.7 0 .36-.093.627-.28.8a.93.93 0 0 1-.62.24c-.2 0-.393-.04-.58-.12a1.462 1.462 0 0 0-.66-.14c-.28 0-.567.073-.86.22-.293.147-.56.367-.8.66-.24.28-.433.613-.58 1-.133.387-.2.82-.2 1.3v4.8c0 .293-.1.54-.3.74a.949.949 0 0 1-.7.28Zm11.81.2c-1.107 0-2.067-.227-2.88-.68a5.001 5.001 0 0 1-1.9-1.9c-.44-.813-.66-1.74-.66-2.78 0-1.173.233-2.173.7-3 .48-.84 1.1-1.48 1.86-1.92a4.65 4.65 0 0 1 2.42-.68c.653 0 1.273.133 1.86.4a4.814 4.814 0 0 1 1.56 1.08 4.91 4.91 0 0 1 1.1 1.62c.267.613.407 1.287.42 2.02a.897.897 0 0 1-.32.66c-.2.173-.433.26-.7.26h-7.78l-.48-1.7h7.52l-.38.36v-.5a2.083 2.083 0 0 0-.46-1.22 2.718 2.718 0 0 0-1.04-.82c-.413-.2-.847-.3-1.3-.3-.4 0-.787.067-1.16.2-.36.12-.687.32-.98.6-.28.28-.507.653-.68 1.12-.16.453-.24 1.02-.24 1.7 0 .733.153 1.373.46 1.92.307.547.72.973 1.24 1.28a3.44 3.44 0 0 0 1.72.44c.493 0 .9-.047 1.22-.14.32-.107.587-.233.8-.38.213-.147.4-.287.56-.42.2-.12.4-.18.6-.18.24 0 .44.087.6.26.16.16.24.353.24.58 0 .293-.147.56-.44.8-.36.347-.86.653-1.5.92-.627.267-1.287.4-1.98.4Z"/></g></svg>