<svg xmlns="http://www.w3.org/2000/svg" width="34" height="34" fill="none"><path fill="#fff" d="M17 .333A1.666 1.666 0 0 0 15.333 2v3.333a1.667 1.667 0 1 0 3.333 0V2A1.667 1.667 0 0 0 17 .333Zm15 15h-3.334a1.667 1.667 0 0 0 0 3.334H32a1.667 1.667 0 0 0 0-3.334ZM7 17a1.667 1.667 0 0 0-1.667-1.667H2a1.667 1.667 0 0 0 0 3.334h3.333A1.667 1.667 0 0 0 7 17Zm.366-11.667a1.686 1.686 0 0 0-2.316 2.45l2.4 2.317a1.666 1.666 0 0 0 1.216.467 1.667 1.667 0 0 0 1.2-.517 1.666 1.666 0 0 0 0-2.35l-2.5-2.367Zm17.967 5.234c.43-.002.841-.17 1.15-.467l2.4-2.317a1.667 1.667 0 0 0-2.25-2.45l-2.4 2.367a1.667 1.667 0 0 0 0 2.35c.289.305.681.49 1.1.517ZM17 27a1.666 1.666 0 0 0-1.667 1.667V32a1.667 1.667 0 1 0 3.333 0v-3.333A1.667 1.667 0 0 0 17 27Zm9.55-3.1a1.668 1.668 0 0 0-2.317 2.4l2.4 2.367a1.667 1.667 0 0 0 2.35-.034 1.667 1.667 0 0 0 0-2.366L26.55 23.9Zm-19.1 0-2.4 2.317a1.666 1.666 0 0 0 0 2.366 1.667 1.667 0 0 0 1.2.5c.41.004.808-.144 1.116-.416l2.4-2.317a1.668 1.668 0 1 0-2.316-2.4v-.05Z"/></svg>