<svg xmlns="http://www.w3.org/2000/svg" width="40" height="41" fill="none"><path fill="#9384B7" d="M20 3.833A1.666 1.666 0 0 0 18.333 5.5v3.334a1.667 1.667 0 1 0 3.333 0V5.5A1.667 1.667 0 0 0 20 3.833Zm15 15h-3.334a1.667 1.667 0 0 0 0 3.334H35a1.667 1.667 0 0 0 0-3.334ZM10 20.5a1.666 1.666 0 0 0-1.667-1.666H5a1.667 1.667 0 1 0 0 3.333h3.333A1.667 1.667 0 0 0 10 20.5Zm.366-11.666a1.686 1.686 0 1 0-2.316 2.45l2.4 2.316a1.665 1.665 0 0 0 1.216.467 1.666 1.666 0 0 0 1.2-.517 1.666 1.666 0 0 0 0-2.35l-2.5-2.366Zm17.967 5.233c.43-.002.841-.169 1.15-.467l2.4-2.316a1.667 1.667 0 0 0-2.25-2.45l-2.4 2.366a1.667 1.667 0 0 0 0 2.35c.289.305.681.49 1.1.517ZM20 30.5a1.667 1.667 0 0 0-1.667 1.667V35.5a1.667 1.667 0 0 0 3.333 0v-3.333A1.667 1.667 0 0 0 20 30.5Zm9.55-3.1a1.668 1.668 0 0 0-2.317 2.4l2.4 2.367a1.667 1.667 0 0 0 2.35-.034 1.666 1.666 0 0 0 0-2.366L29.55 27.4Zm-19.1 0-2.4 2.317a1.667 1.667 0 0 0 0 2.367 1.667 1.667 0 0 0 1.2.5c.41.003.808-.145 1.116-.417l2.4-2.317a1.668 1.668 0 1 0-2.316-2.4v-.05Z"/></svg>