<svg width="40" height="40" viewBox="0 0 40 40" fill="none" xmlns="http://www.w3.org/2000/svg">
<g id="Icon / exit">
<path id="Vector" d="M24.7518 9.69121H28.6176C29.3011 9.69121 29.9566 9.96273 30.4399 10.4461C30.9233 10.9294 31.1948 11.5849 31.1948 12.2684V13.557M24.7518 30.3088H28.6176C29.3011 30.3088 29.9566 30.0373 30.4399 29.5539C30.9233 29.0706 31.1948 28.4151 31.1948 27.7316V26.443M15.7329 20H15.7316M24.7518 20H31.1948M31.1948 20L28.6176 17.4228M31.1948 20L28.6176 22.5772M9.83625 29.5717L17.5678 31.8912C17.9527 32.0067 18.3593 32.0307 18.7551 31.9611C19.1508 31.8915 19.5249 31.7303 19.8473 31.4904C20.1697 31.2505 20.4315 30.9386 20.6118 30.5795C20.7922 30.2204 20.8861 29.8241 20.886 29.4222V10.5778C20.8861 10.1759 20.7922 9.77962 20.6118 9.42051C20.4315 9.06141 20.1697 8.74946 19.8473 8.50958C19.5249 8.26969 19.1508 8.10852 18.7551 8.03893C18.3593 7.96935 17.9527 7.99328 17.5678 8.10881L9.83625 10.4283C9.30538 10.5876 8.84002 10.9139 8.50924 11.3587C8.17846 11.8034 7.99988 12.343 8 12.8972V27.1028C7.99988 27.657 8.17846 28.1966 8.50924 28.6413C8.84002 29.0861 9.30538 29.4124 9.83625 29.5717Z" stroke="#0F0F0F" stroke-linecap="round" stroke-linejoin="round"/>
</g>
</svg>
