<svg width="149" height="51" viewBox="0 0 149 51" fill="none" xmlns="http://www.w3.org/2000/svg">
<g id="Clip path group">
<mask id="mask0_202_4460" style="mask-type:luminance" maskUnits="userSpaceOnUse" x="0" y="0" width="149" height="51">
<g id="clip0_202_4458">
<path id="Vector" d="M149 0H0V51H149V0Z" fill="white"/>
</g>
</mask>
<g mask="url(#mask0_202_4460)">
<g id="Group">
<path id="Vector_2" d="M33.4189 32.1174C35.2694 29.4738 36.3579 24.4651 34.8338 15.1093" stroke="#ECACB3" stroke-width="2.5" stroke-miterlimit="10" stroke-linejoin="round"/>
<path id="Vector_3" d="M17.4629 26.0069C17.4629 26.0069 23.5896 25.1659 26.1106 31.0489C26.1106 31.0489 27.2035 34.6635 29.9844 34.6635C29.9844 34.6635 31.2234 34.9012 31.2596 36.4416C31.2596 36.4416 32.1007 42.8843 27.2677 44.0754C27.2677 44.0754 19.5644 43.9344 19.5644 50.307" stroke="#ECACB3" stroke-width="2.5" stroke-miterlimit="10" stroke-linejoin="round"/>
<path id="Vector_4" d="M17.0425 28.2465V20.2642C17.0425 20.2642 2.88242 26.1465 2.33524 37.2117L2 44.2859" stroke="#ECACB3" stroke-width="2.5" stroke-miterlimit="10" stroke-linejoin="round"/>
<path id="Vector_5" d="M43.8402 45.8388C41.7069 40.1492 40.7477 34.2241 43.7406 26.862H54.5356C54.5356 26.862 60.7576 26.1694 61.1039 15.1092L50.0423 10.2681C50.0423 10.2681 49.696 4.39173 43.1299 3.01014C43.1299 3.01014 27.9198 -2.86551 22.7361 13.7247C22.7361 13.7247 21.6417 17.0565 21.0273 21.0698" stroke="#ECACB3" stroke-width="2.5" stroke-miterlimit="10" stroke-linejoin="round"/>
<path id="Vector_6" d="M79.2604 11C79.9671 11 80.6204 11.1933 81.2204 11.58C81.8204 11.9533 82.3004 12.4667 82.6604 13.12C83.0204 13.7733 83.2003 14.5067 83.2003 15.32C83.2003 16.1333 83.0204 16.8733 82.6604 17.54C82.3004 18.1933 81.8204 18.72 81.2204 19.12C80.6204 19.5067 79.9671 19.7 79.2604 19.7H75.4004L75.5603 19.38V23.98C75.5603 24.2733 75.467 24.52 75.2803 24.72C75.107 24.9067 74.8737 25 74.5804 25C74.3004 25 74.067 24.9067 73.8803 24.72C73.707 24.52 73.6204 24.2733 73.6204 23.98V12.02C73.6204 11.7267 73.7203 11.4867 73.9203 11.3C74.1203 11.1 74.3604 11 74.6404 11H79.2604ZM79.2604 17.78C79.6071 17.78 79.9203 17.6667 80.2003 17.44C80.4936 17.2133 80.7271 16.9133 80.9004 16.54C81.0871 16.1667 81.1804 15.76 81.1804 15.32C81.1804 14.88 81.0871 14.48 80.9004 14.12C80.7271 13.76 80.4936 13.4733 80.2003 13.26C79.9203 13.0333 79.6071 12.92 79.2604 12.92H75.3604L75.5603 12.62V18.04L75.3803 17.78H79.2604ZM93.1544 14.48C93.4344 14.48 93.6678 14.58 93.8545 14.78C94.0545 14.9667 94.1544 15.2067 94.1544 15.5V20.76C94.1544 22.1467 93.7678 23.2333 92.9945 24.02C92.2211 24.7933 91.1278 25.18 89.7145 25.18C88.3145 25.18 87.2278 24.7933 86.4545 24.02C85.6945 23.2333 85.3145 22.1467 85.3145 20.76V15.5C85.3145 15.2067 85.4078 14.9667 85.5945 14.78C85.7811 14.58 86.0211 14.48 86.3145 14.48C86.5945 14.48 86.8278 14.58 87.0145 14.78C87.2145 14.9667 87.3145 15.2067 87.3145 15.5V20.76C87.3145 21.6267 87.5145 22.2733 87.9145 22.7C88.3278 23.1267 88.9278 23.34 89.7145 23.34C90.5145 23.34 91.1211 23.1267 91.5345 22.7C91.9478 22.2733 92.1544 21.6267 92.1544 20.76V15.5C92.1544 15.2067 92.2477 14.9667 92.4344 14.78C92.621 14.58 92.861 14.48 93.1544 14.48ZM97.936 25C97.642 25 97.402 24.9067 97.216 24.72C97.029 24.52 96.936 24.2733 96.936 23.98V15.5C96.936 15.2067 97.029 14.9667 97.216 14.78C97.402 14.58 97.642 14.48 97.936 14.48C98.216 14.48 98.449 14.58 98.636 14.78C98.836 14.9667 98.936 15.2067 98.936 15.5V17.74L98.736 16.88C98.842 16.5067 99.002 16.16 99.216 15.84C99.442 15.52 99.709 15.24 100.015 15C100.322 14.76 100.662 14.5733 101.035 14.44C101.422 14.3067 101.822 14.24 102.235 14.24C102.582 14.24 102.882 14.3333 103.135 14.52C103.388 14.7067 103.515 14.94 103.515 15.22C103.515 15.58 103.422 15.8467 103.235 16.02C103.048 16.18 102.842 16.26 102.615 16.26C102.415 16.26 102.222 16.22 102.035 16.14C101.848 16.0467 101.628 16 101.375 16C101.095 16 100.808 16.0733 100.515 16.22C100.222 16.3667 99.956 16.5867 99.716 16.88C99.476 17.16 99.282 17.4933 99.136 17.88C99.002 18.2667 98.936 18.7 98.936 19.18V23.98C98.936 24.2733 98.836 24.52 98.636 24.72C98.449 24.9067 98.216 25 97.936 25ZM106.295 25C106.001 25 105.761 24.9067 105.575 24.72C105.388 24.52 105.295 24.2733 105.295 23.98V15.5C105.295 15.2067 105.388 14.9667 105.575 14.78C105.761 14.58 106.001 14.48 106.295 14.48C106.575 14.48 106.808 14.58 106.995 14.78C107.195 14.9667 107.295 15.2067 107.295 15.5V17.74L107.095 16.88C107.201 16.5067 107.361 16.16 107.575 15.84C107.801 15.52 108.068 15.24 108.375 15C108.681 14.76 109.021 14.5733 109.395 14.44C109.781 14.3067 110.181 14.24 110.595 14.24C110.941 14.24 111.241 14.3333 111.495 14.52C111.748 14.7067 111.875 14.94 111.875 15.22C111.875 15.58 111.781 15.8467 111.595 16.02C111.408 16.18 111.201 16.26 110.975 16.26C110.775 16.26 110.581 16.22 110.395 16.14C110.208 16.0467 109.988 16 109.735 16C109.455 16 109.168 16.0733 108.875 16.22C108.581 16.3667 108.315 16.5867 108.075 16.88C107.835 17.16 107.641 17.4933 107.495 17.88C107.361 18.2667 107.295 18.7 107.295 19.18V23.98C107.295 24.2733 107.195 24.52 106.995 24.72C106.808 24.9067 106.575 25 106.295 25ZM118.554 10.22C118.807 10.22 119.067 10.2533 119.334 10.32C119.601 10.3867 119.821 10.5 119.994 10.66C120.181 10.8067 120.274 11.0133 120.274 11.28C120.274 11.5467 120.194 11.7667 120.034 11.94C119.874 12.1 119.687 12.18 119.474 12.18C119.341 12.18 119.161 12.1533 118.934 12.1C118.707 12.0333 118.481 12 118.254 12C117.947 12 117.701 12.0733 117.514 12.22C117.327 12.3533 117.194 12.5267 117.114 12.74C117.034 12.94 116.994 13.14 116.994 13.34V23.98C116.994 24.2733 116.894 24.52 116.694 24.72C116.507 24.9067 116.274 25 115.994 25C115.701 25 115.461 24.9067 115.274 24.72C115.087 24.52 114.994 24.2733 114.994 23.98V13.36C114.994 12.44 115.294 11.6867 115.894 11.1C116.507 10.5133 117.394 10.22 118.554 10.22ZM118.954 14.66C119.221 14.66 119.441 14.7467 119.614 14.92C119.787 15.0933 119.874 15.3133 119.874 15.58C119.874 15.8467 119.787 16.0667 119.614 16.24C119.441 16.4133 119.221 16.5 118.954 16.5H113.774C113.521 16.5 113.301 16.4133 113.114 16.24C112.941 16.0667 112.854 15.8467 112.854 15.58C112.854 15.3133 112.941 15.0933 113.114 14.92C113.301 14.7467 113.521 14.66 113.774 14.66H118.954ZM126.132 25.2C125.025 25.2 124.065 24.9733 123.252 24.52C122.439 24.0533 121.805 23.42 121.352 22.62C120.912 21.8067 120.692 20.88 120.692 19.84C120.692 18.6667 120.925 17.6667 121.392 16.84C121.872 16 122.492 15.36 123.252 14.92C124.012 14.4667 124.819 14.24 125.672 14.24C126.325 14.24 126.945 14.3733 127.532 14.64C128.119 14.8933 128.639 15.2533 129.092 15.72C129.559 16.1733 129.925 16.7133 130.192 17.34C130.459 17.9533 130.599 18.6267 130.612 19.36C130.599 19.6267 130.492 19.8467 130.292 20.02C130.092 20.1933 129.859 20.28 129.592 20.28H121.812L121.332 18.58H128.852L128.472 18.94V18.44C128.445 17.9733 128.292 17.5667 128.012 17.22C127.732 16.86 127.385 16.5867 126.972 16.4C126.559 16.2 126.125 16.1 125.672 16.1C125.272 16.1 124.885 16.1667 124.512 16.3C124.152 16.42 123.825 16.62 123.532 16.9C123.252 17.18 123.025 17.5533 122.852 18.02C122.692 18.4733 122.612 19.04 122.612 19.72C122.612 20.4533 122.765 21.0933 123.072 21.64C123.379 22.1867 123.792 22.6133 124.312 22.92C124.832 23.2133 125.405 23.36 126.032 23.36C126.525 23.36 126.932 23.3133 127.252 23.22C127.572 23.1133 127.839 22.9867 128.052 22.84C128.265 22.6933 128.452 22.5533 128.612 22.42C128.812 22.3 129.012 22.24 129.212 22.24C129.452 22.24 129.652 22.3267 129.812 22.5C129.972 22.66 130.052 22.8533 130.052 23.08C130.052 23.3733 129.905 23.64 129.612 23.88C129.252 24.2267 128.752 24.5333 128.112 24.8C127.485 25.0667 126.825 25.2 126.132 25.2ZM137.533 14.24C138.253 14.24 138.893 14.32 139.453 14.48C140.013 14.6267 140.446 14.84 140.753 15.12C141.073 15.3867 141.233 15.7 141.233 16.06C141.233 16.2867 141.166 16.5 141.033 16.7C140.899 16.8867 140.699 16.98 140.433 16.98C140.246 16.98 140.086 16.9467 139.953 16.88C139.833 16.8133 139.719 16.7333 139.613 16.64C139.506 16.5467 139.373 16.4533 139.213 16.36C139.066 16.28 138.846 16.2133 138.553 16.16C138.273 16.1067 138.019 16.08 137.793 16.08C137.086 16.08 136.473 16.24 135.953 16.56C135.446 16.88 135.046 17.3133 134.753 17.86C134.473 18.4067 134.333 19.0267 134.333 19.72C134.333 20.4133 134.473 21.0333 134.753 21.58C135.046 22.1267 135.439 22.56 135.933 22.88C136.439 23.2 137.026 23.36 137.693 23.36C138.093 23.36 138.419 23.3333 138.673 23.28C138.926 23.2133 139.146 23.1333 139.333 23.04C139.533 22.92 139.699 22.8 139.833 22.68C139.979 22.5467 140.179 22.48 140.433 22.48C140.726 22.48 140.946 22.5733 141.093 22.76C141.253 22.9333 141.333 23.1533 141.333 23.42C141.333 23.7133 141.153 24 140.793 24.28C140.446 24.5467 139.979 24.7667 139.393 24.94C138.806 25.1133 138.159 25.2 137.453 25.2C136.413 25.2 135.506 24.96 134.733 24.48C133.973 24 133.379 23.3467 132.953 22.52C132.539 21.6933 132.333 20.76 132.333 19.72C132.333 18.6667 132.553 17.7333 132.993 16.92C133.433 16.0933 134.046 15.44 134.833 14.96C135.619 14.48 136.519 14.24 137.533 14.24ZM143.104 14.6H147.804C148.07 14.6 148.29 14.6933 148.464 14.88C148.65 15.0533 148.744 15.2733 148.744 15.54C148.744 15.7933 148.65 16.0067 148.464 16.18C148.29 16.3533 148.07 16.44 147.804 16.44H143.104C142.837 16.44 142.61 16.3533 142.424 16.18C142.25 15.9933 142.164 15.7733 142.164 15.52C142.164 15.2533 142.25 15.0333 142.424 14.86C142.61 14.6867 142.837 14.6 143.104 14.6ZM145.204 12C145.497 12 145.737 12.1 145.924 12.3C146.11 12.4867 146.204 12.7267 146.204 13.02V22.3C146.204 22.54 146.244 22.7333 146.324 22.88C146.404 23.0267 146.51 23.1267 146.644 23.18C146.79 23.2333 146.937 23.26 147.084 23.26C147.23 23.26 147.357 23.2333 147.464 23.18C147.584 23.1267 147.724 23.1 147.884 23.1C148.044 23.1 148.19 23.1733 148.324 23.32C148.457 23.4667 148.524 23.6667 148.524 23.92C148.524 24.24 148.35 24.5 148.004 24.7C147.657 24.9 147.284 25 146.884 25C146.657 25 146.39 24.98 146.084 24.94C145.777 24.9 145.477 24.8 145.184 24.64C144.904 24.48 144.67 24.2267 144.484 23.88C144.297 23.52 144.204 23.02 144.204 22.38V13.02C144.204 12.7267 144.297 12.4867 144.484 12.3C144.684 12.1 144.924 12 145.204 12ZM78.0603 34.24C78.7803 34.24 79.4204 34.32 79.9804 34.48C80.5404 34.6267 80.9736 34.84 81.2803 35.12C81.6003 35.3867 81.7604 35.7 81.7604 36.06C81.7604 36.2867 81.6936 36.5 81.5603 36.7C81.427 36.8867 81.2271 36.98 80.9604 36.98C80.7737 36.98 80.6137 36.9467 80.4804 36.88C80.3604 36.8133 80.2471 36.7333 80.1404 36.64C80.0337 36.5467 79.9003 36.4533 79.7403 36.36C79.5936 36.28 79.3737 36.2133 79.0804 36.16C78.8004 36.1067 78.5471 36.08 78.3204 36.08C77.6137 36.08 77.0004 36.24 76.4804 36.56C75.9737 36.88 75.5736 37.3133 75.2803 37.86C75.0003 38.4067 74.8604 39.0267 74.8604 39.72C74.8604 40.4133 75.0003 41.0333 75.2803 41.58C75.5736 42.1267 75.9671 42.56 76.4604 42.88C76.9671 43.2 77.5537 43.36 78.2204 43.36C78.6204 43.36 78.947 43.3333 79.2003 43.28C79.4536 43.2133 79.6737 43.1333 79.8604 43.04C80.0604 42.92 80.2271 42.8 80.3604 42.68C80.5071 42.5467 80.7071 42.48 80.9604 42.48C81.2537 42.48 81.4737 42.5733 81.6204 42.76C81.7804 42.9333 81.8604 43.1533 81.8604 43.42C81.8604 43.7133 81.6804 44 81.3204 44.28C80.9737 44.5467 80.507 44.7667 79.9203 44.94C79.3336 45.1133 78.6871 45.2 77.9804 45.2C76.9404 45.2 76.0337 44.96 75.2604 44.48C74.5004 44 73.9071 43.3467 73.4804 42.52C73.0671 41.6933 72.8604 40.76 72.8604 39.72C72.8604 38.6667 73.0803 37.7333 73.5203 36.92C73.9603 36.0933 74.5737 35.44 75.3604 34.96C76.1471 34.48 77.047 34.24 78.0603 34.24ZM92.3914 34.32C92.6847 34.32 92.9248 34.42 93.1115 34.62C93.2982 34.8067 93.3914 35.0467 93.3914 35.34V43.98C93.3914 44.2733 93.2982 44.52 93.1115 44.72C92.9248 44.9067 92.6847 45 92.3914 45C92.1114 45 91.8714 44.9067 91.6714 44.72C91.4847 44.52 91.3914 44.2733 91.3914 43.98V42.54L91.8114 42.6C91.8114 42.84 91.7115 43.1067 91.5115 43.4C91.3248 43.6933 91.0648 43.98 90.7315 44.26C90.3982 44.5267 90.0048 44.7533 89.5515 44.94C89.0982 45.1133 88.6115 45.2 88.0915 45.2C87.1715 45.2 86.3448 44.9667 85.6115 44.5C84.8782 44.02 84.2982 43.3667 83.8715 42.54C83.4448 41.7133 83.2315 40.7733 83.2315 39.72C83.2315 38.64 83.4448 37.6933 83.8715 36.88C84.2982 36.0533 84.8715 35.4067 85.5915 34.94C86.3248 34.4733 87.1381 34.24 88.0314 34.24C88.6047 34.24 89.1315 34.3333 89.6115 34.52C90.1048 34.7067 90.5314 34.9467 90.8914 35.24C91.2514 35.5333 91.5247 35.8467 91.7114 36.18C91.9114 36.5 92.0115 36.8067 92.0115 37.1L91.3914 37.16V35.34C91.3914 35.06 91.4847 34.82 91.6714 34.62C91.8714 34.42 92.1114 34.32 92.3914 34.32ZM88.3114 43.36C88.9381 43.36 89.4915 43.2 89.9715 42.88C90.4515 42.56 90.8248 42.1267 91.0915 41.58C91.3582 41.02 91.4914 40.4 91.4914 39.72C91.4914 39.0267 91.3582 38.4067 91.0915 37.86C90.8248 37.3133 90.4515 36.88 89.9715 36.56C89.4915 36.24 88.9381 36.08 88.3114 36.08C87.6981 36.08 87.1514 36.24 86.6714 36.56C86.2047 36.88 85.8315 37.3133 85.5515 37.86C85.2848 38.4067 85.1515 39.0267 85.1515 39.72C85.1515 40.4 85.2848 41.02 85.5515 41.58C85.8315 42.1267 86.2047 42.56 86.6714 42.88C87.1514 43.2 87.6981 43.36 88.3114 43.36ZM97.193 45C96.9 45 96.66 44.9067 96.473 44.72C96.287 44.52 96.193 44.2733 96.193 43.98V35.5C96.193 35.2067 96.287 34.9667 96.473 34.78C96.66 34.58 96.9 34.48 97.193 34.48C97.473 34.48 97.707 34.58 97.893 34.78C98.093 34.9667 98.193 35.2067 98.193 35.5V37.74L97.993 36.88C98.1 36.5067 98.26 36.16 98.473 35.84C98.7 35.52 98.967 35.24 99.273 35C99.58 34.76 99.92 34.5733 100.293 34.44C100.68 34.3067 101.08 34.24 101.493 34.24C101.84 34.24 102.14 34.3333 102.393 34.52C102.646 34.7067 102.773 34.94 102.773 35.22C102.773 35.58 102.68 35.8467 102.493 36.02C102.306 36.18 102.1 36.26 101.873 36.26C101.673 36.26 101.48 36.22 101.293 36.14C101.106 36.0467 100.886 36 100.633 36C100.353 36 100.066 36.0733 99.773 36.22C99.48 36.3667 99.213 36.5867 98.973 36.88C98.733 37.16 98.54 37.4933 98.393 37.88C98.26 38.2667 98.193 38.7 98.193 39.18V43.98C98.193 44.2733 98.093 44.52 97.893 44.72C97.707 44.9067 97.473 45 97.193 45ZM109.003 45.2C107.896 45.2 106.936 44.9733 106.123 44.52C105.31 44.0533 104.676 43.42 104.223 42.62C103.783 41.8067 103.563 40.88 103.563 39.84C103.563 38.6667 103.796 37.6667 104.263 36.84C104.743 36 105.363 35.36 106.123 34.92C106.883 34.4667 107.69 34.24 108.543 34.24C109.196 34.24 109.816 34.3733 110.403 34.64C110.99 34.8933 111.51 35.2533 111.963 35.72C112.43 36.1733 112.796 36.7133 113.063 37.34C113.33 37.9533 113.47 38.6267 113.483 39.36C113.47 39.6267 113.363 39.8467 113.163 40.02C112.963 40.1933 112.73 40.28 112.463 40.28H104.683L104.203 38.58H111.723L111.343 38.94V38.44C111.316 37.9733 111.163 37.5667 110.883 37.22C110.603 36.86 110.256 36.5867 109.843 36.4C109.43 36.2 108.996 36.1 108.543 36.1C108.143 36.1 107.756 36.1667 107.383 36.3C107.023 36.42 106.696 36.62 106.403 36.9C106.123 37.18 105.896 37.5533 105.723 38.02C105.563 38.4733 105.483 39.04 105.483 39.72C105.483 40.4533 105.636 41.0933 105.943 41.64C106.25 42.1867 106.663 42.6133 107.183 42.92C107.703 43.2133 108.276 43.36 108.903 43.36C109.396 43.36 109.803 43.3133 110.123 43.22C110.443 43.1133 110.71 42.9867 110.923 42.84C111.136 42.6933 111.323 42.5533 111.483 42.42C111.683 42.3 111.883 42.24 112.083 42.24C112.323 42.24 112.523 42.3267 112.683 42.5C112.843 42.66 112.923 42.8533 112.923 43.08C112.923 43.3733 112.776 43.64 112.483 43.88C112.123 44.2267 111.623 44.5333 110.983 44.8C110.356 45.0667 109.696 45.2 109.003 45.2Z" fill="#9384B7"/>
</g>
</g>
</g>
</svg>
