<svg xmlns="http://www.w3.org/2000/svg" width="100" height="100" fill="none"><path fill="#9384B7" d="M59.5 42C66 42 70 32.5 70 26.5c0-5-2.5-11-7.5-11C56 15.5 52 25 52 31c0 5 2.5 11 7.5 11Zm-19 0c5 0 7.5-6 7.5-11 0-6.5-4-16-10.5-16-5 0-7.5 6-7.5 11-.5 6.5 3.5 16 10.5 16Zm37-5c-6.5 0-11 9-11 15.5 0 4.5 2 9 6.5 9 6.5 0 11-9 11-15.5 0-4.5-2.5-9-6.5-9ZM34 52.5C34 46 29 37 23 37c-4.5 0-6.5 4.5-6.5 9 0 6.5 5 15.5 11 15.5 4.5 0 6.5-4.5 6.5-9Zm16-1c-10 0-23.5 16-23.5 27 0 5 3.5 6.5 7.5 6.5 6 0 10.5-4 16-4 5 0 9.5 4 15 4 4 0 8.5-1 8.5-6.5 0-11-13.5-27-23.5-27Z"/></svg>