<svg width="40" height="40" viewBox="0 0 40 40" fill="none" xmlns="http://www.w3.org/2000/svg">
<g id="icon" clip-path="url(#clip0_115_2607)">
<path id="Vector" d="M19.9998 0.800049C9.39581 0.800049 0.799805 9.39605 0.799805 20C0.799805 30.604 9.39581 39.2001 19.9998 39.2001C30.6038 39.2001 39.1998 30.604 39.1998 20C39.1998 9.39605 30.6038 0.800049 19.9998 0.800049ZM27.3838 22.462C27.3838 22.462 29.0818 24.1381 29.4998 24.916C29.5118 24.9321 29.5178 24.948 29.5218 24.956C29.6918 25.242 29.7318 25.464 29.6478 25.63C29.5078 25.906 29.0278 26.0421 28.8638 26.0541H25.8638C25.6558 26.0541 25.2198 26 24.6918 25.636C24.2858 25.352 23.8858 24.886 23.4958 24.432C22.9138 23.756 22.4098 23.1721 21.9018 23.1721C21.8373 23.1719 21.7732 23.1821 21.7118 23.202C21.3278 23.326 20.8358 23.8741 20.8358 25.334C20.8358 25.79 20.4758 26.052 20.2218 26.052H18.8478C18.3798 26.052 15.9418 25.8881 13.7818 23.6101C11.1378 20.82 8.7578 15.224 8.7378 15.172C8.5878 14.81 8.8978 14.616 9.2358 14.616H12.2658C12.6698 14.616 12.8018 14.862 12.8938 15.08C13.0018 15.334 13.3978 16.344 14.0478 17.48C15.1018 19.332 15.7478 20.084 16.2658 20.084C16.3629 20.0829 16.4583 20.0582 16.5438 20.012C17.2198 19.636 17.0938 17.226 17.0638 16.726C17.0638 16.632 17.0618 15.648 16.7158 15.176C16.4678 14.834 16.0458 14.704 15.7898 14.656C15.8934 14.5131 16.0299 14.3971 16.1878 14.318C16.6518 14.086 17.4878 14.052 18.3178 14.052H18.7798C19.6798 14.064 19.9118 14.122 20.2378 14.204C20.8978 14.362 20.9118 14.788 20.8538 16.246C20.8358 16.66 20.8178 17.128 20.8178 17.68C20.8178 17.8001 20.8118 17.928 20.8118 18.064C20.7918 18.806 20.7678 19.648 21.2918 19.994C21.3602 20.0369 21.4391 20.0598 21.5198 20.06C21.7018 20.06 22.2498 20.06 23.7338 17.514C24.1915 16.6946 24.5892 15.843 24.9238 14.966C24.9538 14.914 25.0418 14.754 25.1458 14.692C25.2226 14.6529 25.3077 14.633 25.3938 14.634H28.9558C29.3438 14.634 29.6098 14.692 29.6598 14.842C29.7478 15.08 29.6438 15.806 28.0178 18.008L27.2918 18.966C25.8178 20.898 25.8178 20.996 27.3838 22.462Z" fill="#0277FF"/>
</g>
<defs>
<clipPath id="clip0_115_2607">
<rect width="40" height="40" fill="white"/>
</clipPath>
</defs>
</svg>
