<svg xmlns="http://www.w3.org/2000/svg" width="24" height="24" fill="none"><g fill="#0F0F0F"><path d="M10.4 19.53a9.295 9.295 0 0 1-3.37-.626 8.845 8.845 0 0 1-2.854-1.789C2.512 15.555 1.6 13.485 1.6 11.28s.912-4.275 2.576-5.835c3.424-3.21 9.008-3.21 12.448 0 1.664 1.56 2.576 3.63 2.576 5.835s-.912 4.275-2.576 5.835a8.844 8.844 0 0 1-2.856 1.789 9.295 9.295 0 0 1-3.368.626Zm0-15c-1.84 0-3.68.66-5.088 1.98C3.952 7.785 3.2 9.48 3.2 11.28c0 1.8.752 3.495 2.112 4.77 1.351 1.26 3.18 1.968 5.088 1.968 1.906 0 3.736-.707 5.088-1.968 1.36-1.275 2.112-2.97 2.112-4.77 0-1.8-.752-3.495-2.112-4.77a7.22 7.22 0 0 0-2.333-1.466A7.59 7.59 0 0 0 10.4 4.53Z"/><path d="M21.6 22.5a.797.797 0 0 1-.306-.057.754.754 0 0 1-.254-.168l-5.408-5.07a.71.71 0 0 1 0-1.065.83.83 0 0 1 1.136 0l5.408 5.07c.32.3.32.765 0 1.065a.831.831 0 0 1-.56.225H21.6Z"/></g></svg>