<svg xmlns="http://www.w3.org/2000/svg" width="18" height="18" fill="none"><path fill="#0F0F0F" d="M9 1.125a7.876 7.876 0 1 0 .001 15.751A7.876 7.876 0 0 0 9 1.125Zm0 14.414A6.54 6.54 0 0 1 9 2.461a6.54 6.54 0 0 1 0 13.078Zm.098-9.364c.932 0 1.565.594 1.635 1.466a.14.14 0 0 0 .14.13h.998a.083.083 0 0 0 .082-.082c0-1.524-1.202-2.591-2.86-2.591-1.932 0-3.046 1.304-3.046 3.459v.92c0 2.139 1.114 3.425 3.046 3.425 1.652 0 2.86-1.033 2.86-2.485a.082.082 0 0 0-.082-.083h-.999a.141.141 0 0 0-.14.129c-.074.81-.705 1.367-1.635 1.367-1.148 0-1.795-.842-1.795-2.348v-.925c.002-1.53.65-2.382 1.796-2.382Z"/></svg>