<svg width="154" height="200" viewBox="0 0 154 200" fill="none" xmlns="http://www.w3.org/2000/svg">
<g id="clarity:avatar-solid">
<g clip-path="url(#clip0_268_6506)">
<rect width="154" height="200" rx="16" fill="#F8F8F8"/>
<path id="Vector" d="M131.808 145.42C124.934 137.882 116.593 131.867 107.309 127.753C98.0249 123.639 87.9998 121.515 77.865 121.515C67.7302 121.515 57.7052 123.639 48.4213 127.753C39.1375 131.867 30.796 137.882 23.9222 145.42C22.861 146.607 22.2673 148.148 22.2539 149.749V175.725C22.2764 177.432 22.9624 179.062 24.1633 180.261C25.3642 181.46 26.9835 182.133 28.6706 182.132H127.059C128.761 182.132 130.393 181.448 131.597 180.23C132.8 179.013 133.476 177.361 133.476 175.638V149.662C133.442 148.091 132.85 146.585 131.808 145.42Z" fill="#D5D5D5"/>
<path id="Vector_2" d="M77.8663 112.863C94.4042 112.863 107.811 99.2947 107.811 82.5575C107.811 65.8203 94.4042 52.2522 77.8663 52.2522C61.3285 52.2522 47.9219 65.8203 47.9219 82.5575C47.9219 99.2947 61.3285 112.863 77.8663 112.863Z" fill="#D5D5D5"/>
</g>
</g>
<defs>
<clipPath id="clip0_268_6506">
<rect width="154" height="200" rx="16" fill="white"/>
</clipPath>
</defs>
</svg>
