<svg width="40" height="40" viewBox="0 0 40 40" fill="none" xmlns="http://www.w3.org/2000/svg">
<path d="M13.4417 19.5H9.54541" stroke="#0F0F0F" stroke-linecap="round" stroke-linejoin="round"/>
<path d="M31.4525 19.5H18.4663" stroke="#0F0F0F" stroke-linecap="round" stroke-linejoin="round"/>
<path d="M22.5336 27.7791H9.54639" stroke="#0F0F0F" stroke-linecap="round" stroke-linejoin="round"/>
<path d="M31.4523 27.7791H27.5581" stroke="#0F0F0F" stroke-linecap="round" stroke-linejoin="round"/>
<path d="M22.5336 11.2209H9.54639" stroke="#0F0F0F" stroke-linecap="round" stroke-linejoin="round"/>
<path d="M31.4523 11.2209H27.5581" stroke="#0F0F0F" stroke-linecap="round" stroke-linejoin="round"/>
<path d="M13.4419 19.5019C13.4419 20.1682 13.7066 20.8072 14.1777 21.2783C14.6488 21.7494 15.2878 22.0141 15.9541 22.0141C16.6203 22.0141 17.2593 21.7494 17.7304 21.2783C18.2016 20.8072 18.4662 20.1682 18.4662 19.5019C18.4662 19.172 18.4013 18.8453 18.275 18.5406C18.1488 18.2358 17.9637 17.9588 17.7304 17.7255C17.4972 17.4923 17.2202 17.3072 16.9154 17.181C16.6106 17.0547 16.284 16.9897 15.9541 16.9897C15.6242 16.9897 15.2975 17.0547 14.9927 17.181C14.6879 17.3072 14.411 17.4923 14.1777 17.7255C13.9444 17.9588 13.7594 18.2358 13.6331 18.5406C13.5069 18.8453 13.4419 19.172 13.4419 19.5019Z" stroke="#0F0F0F"/>
<path d="M22.5337 27.7812C22.5337 28.4475 22.7984 29.0865 23.2695 29.5576C23.7406 30.0287 24.3796 30.2934 25.0459 30.2934C25.7121 30.2934 26.3511 30.0287 26.8222 29.5576C27.2934 29.0865 27.558 28.4475 27.558 27.7812C27.558 27.1149 27.2934 26.476 26.8222 26.0048C26.3511 25.5337 25.7121 25.269 25.0459 25.269C24.3796 25.269 23.7406 25.5337 23.2695 26.0048C22.7984 26.476 22.5337 27.1149 22.5337 27.7812Z" stroke="#0F0F0F"/>
<path d="M22.5337 11.2229C22.5337 11.8891 22.7984 12.5281 23.2695 12.9992C23.7406 13.4704 24.3796 13.735 25.0459 13.735C25.7121 13.735 26.3511 13.4704 26.8222 12.9992C27.2934 12.5281 27.558 11.8891 27.558 11.2229C27.558 10.5566 27.2934 9.91762 26.8222 9.44649C26.3511 8.97537 25.7121 8.71069 25.0459 8.71069C24.3796 8.71069 23.7406 8.97537 23.2695 9.44649C22.7984 9.91762 22.5337 10.5566 22.5337 11.2229Z" stroke="#0F0F0F"/>
</svg>
