<svg xmlns="http://www.w3.org/2000/svg" width="24" height="24" fill="none"><path fill="#0F0F0F" d="M22.5 10.688h-1.134l-2.654-5.971a1.312 1.312 0 0 0-1.2-.78H6.489a1.312 1.312 0 0 0-1.2.78l-2.654 5.97H1.5a.563.563 0 0 0 0 1.126h.938V19.5a1.313 1.313 0 0 0 1.312 1.313H6A1.313 1.313 0 0 0 7.313 19.5v-1.688h9.375V19.5A1.313 1.313 0 0 0 18 20.813h2.25a1.313 1.313 0 0 0 1.313-1.313v-7.688h.937a.562.562 0 1 0 0-1.124ZM6.316 5.173a.187.187 0 0 1 .171-.112h11.025a.187.187 0 0 1 .172.112l2.45 5.513H3.866l2.45-5.513ZM6.188 19.5a.188.188 0 0 1-.188.188H3.75a.188.188 0 0 1-.188-.188v-1.688h2.626V19.5Zm14.062.188H18a.188.188 0 0 1-.188-.188v-1.688h2.625V19.5a.188.188 0 0 1-.187.188Zm.188-3H3.563v-4.875h16.875v4.874Zm-15-2.438A.562.562 0 0 1 6 13.687h1.5a.563.563 0 0 1 0 1.126H6a.563.563 0 0 1-.563-.563Zm10.5 0a.562.562 0 0 1 .562-.563H18a.562.562 0 1 1 0 1.126h-1.5a.562.562 0 0 1-.563-.563Z"/></svg>