<svg xmlns="http://www.w3.org/2000/svg" width="24" height="24" fill="none"><path stroke="#0F0F0F" stroke-linecap="round" stroke-linejoin="round" stroke-width="1.125" d="M4 10.161v10.14c0 .186.077.364.213.495a.743.743 0 0 0 .514.204h4.364v-5.937c0-.277.115-.544.32-.74.204-.197.481-.307.77-.307h3.637c.29 0 .567.11.772.307.204.196.32.463.32.74V21h4.363a.743.743 0 0 0 .514-.204.685.685 0 0 0 .213-.494V10.16"/><path stroke="#0F0F0F" stroke-linecap="round" stroke-linejoin="round" stroke-width="1.125" d="m22 12-9.514-8.828c-.223-.228-.745-.23-.972 0L2 12m16.429-3.332V3.692h-2.143v2.985"/></svg>