<svg width="24" height="24" viewBox="0 0 24 24" fill="none" xmlns="http://www.w3.org/2000/svg">
<path d="M17.9778 7.86C18.0804 7.76104 18.1622 7.64264 18.2185 7.51172C18.2748 7.3808 18.3045 7.23997 18.3058 7.09746C18.3071 6.95495 18.28 6.8136 18.2261 6.68167C18.1722 6.54974 18.0926 6.42986 17.9918 6.32904C17.8911 6.22821 17.7713 6.14846 17.6394 6.09443C17.5075 6.0404 17.3662 6.01318 17.2237 6.01435C17.0812 6.01552 16.9403 6.04506 16.8094 6.10125C16.6784 6.15744 16.5599 6.23915 16.4609 6.34161L12.159 10.642L7.85857 6.34161C7.76031 6.23616 7.64181 6.15158 7.51015 6.09292C7.37849 6.03425 7.23637 6.00271 7.09225 6.00017C6.94814 5.99762 6.80499 6.02414 6.67134 6.07812C6.53769 6.1321 6.41629 6.21245 6.31437 6.31437C6.21245 6.41629 6.1321 6.53769 6.07812 6.67134C6.02414 6.80499 5.99762 6.94814 6.00017 7.09225C6.00271 7.23637 6.03425 7.37849 6.09292 7.51015C6.15158 7.64181 6.23616 7.76031 6.34161 7.85857L10.6392 12.1604L6.33875 16.4609C6.14916 16.6643 6.04595 16.9334 6.05085 17.2115C6.05576 17.4896 6.1684 17.7549 6.36505 17.9515C6.5617 18.1482 6.82701 18.2608 7.10507 18.2657C7.38313 18.2706 7.65224 18.1674 7.85571 17.9778L12.159 13.6774L16.4594 17.9792C16.6629 18.1688 16.932 18.2721 17.2101 18.2671C17.4881 18.2622 17.7534 18.1496 17.9501 17.9529C18.1467 17.7563 18.2594 17.491 18.2643 17.2129C18.2692 16.9349 18.166 16.6658 17.9764 16.4623L13.6788 12.1604L17.9778 7.86Z" fill="#D80000"/>
</svg>
