<svg xmlns="http://www.w3.org/2000/svg" width="22" height="22" fill="none"><path stroke="#0F0F0F" stroke-width="1.5" d="M11 14a3 3 0 1 0 0-6 3 3 0 0 0 0 6Z"/><path stroke="#0F0F0F" stroke-width="1.5" d="M12.765 1.152C12.398 1 11.932 1 11.002 1c-.932 0-1.399 0-1.766.152a2 2 0 0 0-1.083 1.083c-.092.223-.129.484-.143.863a1.617 1.617 0 0 1-.79 1.353 1.617 1.617 0 0 1-1.567.008c-.336-.178-.579-.276-.82-.308a2 2 0 0 0-1.478.396C3.04 4.79 2.806 5.193 2.34 6c-.466.807-.7 1.21-.75 1.605a2 2 0 0 0 .395 1.479c.148.192.355.353.676.555.473.297.777.803.777 1.361 0 .558-.304 1.064-.777 1.36-.32.203-.529.364-.676.556a2 2 0 0 0-.396 1.479c.052.394.285.798.75 1.605.467.807.7 1.21 1.015 1.453a2 2 0 0 0 1.48.396c.24-.032.482-.13.818-.308a1.617 1.617 0 0 1 1.567.008c.483.28.77.795.79 1.353.014.38.05.64.143.863a2.001 2.001 0 0 0 1.083 1.083c.367.152.834.152 1.766.152.931 0 1.398 0 1.764-.152a2 2 0 0 0 1.083-1.083c.092-.223.13-.483.143-.863.02-.558.308-1.074.79-1.353a1.617 1.617 0 0 1 1.567-.008c.336.178.58.276.82.308a1.998 1.998 0 0 0 1.479-.396c.315-.242.547-.646 1.013-1.453.466-.807.7-1.21.751-1.605a2 2 0 0 0-.396-1.479c-.148-.192-.355-.353-.675-.555A1.618 1.618 0 0 1 18.563 11c0-.558.303-1.064.777-1.36.32-.203.528-.364.675-.556a2 2 0 0 0 .396-1.479c-.052-.394-.285-.798-.75-1.605-.467-.807-.7-1.21-1.015-1.453a2 2 0 0 0-1.479-.396c-.24.032-.483.13-.82.308a1.617 1.617 0 0 1-1.566-.008 1.617 1.617 0 0 1-.79-1.353c-.014-.38-.05-.64-.143-.863a1.999 1.999 0 0 0-1.083-1.083Z"/></svg>